HIERARCHY
ROOT joint_Root
{
	OFFSET 0.0 0.0 0.0
	CHANNELS 6 Xposition Yposition Zposition Zrotation Xrotation Yrotation 
	JOINT Hips
	{
		OFFSET 4.5925 91.4895 -427.239
		CHANNELS 6 Xposition Yposition Zposition Zrotation Xrotation Yrotation 
		JOINT Spine
		{
			OFFSET 15.7357 0.0 0.0
			CHANNELS 6 Xposition Yposition Zposition Zrotation Xrotation Yrotation 
			JOINT Chest
			{
				OFFSET 8.98455 -0.406207 0.0
				CHANNELS 6 Xposition Yposition Zposition Zrotation Xrotation Yrotation 
				JOINT Neck
				{
					OFFSET 16.3773 0.0 0.0
					CHANNELS 6 Xposition Yposition Zposition Zrotation Xrotation Yrotation 
					JOINT Head
					{
						OFFSET 6.45672 0.0 0.0
						CHANNELS 6 Xposition Yposition Zposition Zrotation Xrotation Yrotation 
						End Site
						{
							OFFSET 0.0 0.0 0.0
						}
					}
				}
				JOINT Shoulder_L
				{
					OFFSET 12.9942 -0.242716 4.98039
					CHANNELS 6 Xposition Yposition Zposition Zrotation Xrotation Yrotation 
					JOINT UpperArm_L
					{
						OFFSET 5.34809 0.0 0.0
						CHANNELS 6 Xposition Yposition Zposition Zrotation Xrotation Yrotation 
						JOINT LowerArm_L
						{
							OFFSET 24.3286 1.87007e-05 0.0
							CHANNELS 6 Xposition Yposition Zposition Zrotation Xrotation Yrotation 
							JOINT Hand_L
							{
								OFFSET 22.2916 0.0 0.0
								CHANNELS 6 Xposition Yposition Zposition Zrotation Xrotation Yrotation 
								End Site
								{
									OFFSET 0.0 0.0 0.0
								}
							}
						}
					}
				}
				JOINT Shoulder_R
				{
					OFFSET 12.9945 -0.242716 -4.98039
					CHANNELS 6 Xposition Yposition Zposition Zrotation Xrotation Yrotation 
					JOINT UpperArm_R
					{
						OFFSET -5.34813 0.0 0.0
						CHANNELS 6 Xposition Yposition Zposition Zrotation Xrotation Yrotation 
						JOINT LowerArm_R
						{
							OFFSET -24.3289 0.000322201 0.0
							CHANNELS 6 Xposition Yposition Zposition Zrotation Xrotation Yrotation 
							JOINT Hand_R
							{
								OFFSET -22.2915 -0.000108084 0.0
								CHANNELS 6 Xposition Yposition Zposition Zrotation Xrotation Yrotation 
								End Site
								{
									OFFSET 0.0 0.0 0.0
								}
							}
						}
					}
				}
			}
		}
		JOINT UpperLeg_L
		{
			OFFSET -2.19248 -6.46944 0.0
			CHANNELS 6 Xposition Yposition Zposition Zrotation Xrotation Yrotation 
			JOINT LowerLeg_L
			{
				OFFSET 39.0811 0.0 -1.23785e-05
				CHANNELS 6 Xposition Yposition Zposition Zrotation Xrotation Yrotation 
				JOINT Foot_L
				{
					OFFSET 40.9854 0.0 -1.26872e-05
					CHANNELS 6 Xposition Yposition Zposition Zrotation Xrotation Yrotation 
					JOINT Toes_L
					{
						OFFSET 11.7543 0.0 0.0
						CHANNELS 6 Xposition Yposition Zposition Zrotation Xrotation Yrotation 
						End Site
						{
							OFFSET 0.0 0.0 0.0
						}
					}
				}
			}
		}
		JOINT UpperLeg_R
		{
			OFFSET -2.19251 6.46944 0.0
			CHANNELS 6 Xposition Yposition Zposition Zrotation Xrotation Yrotation 
			JOINT LowerLeg_R
			{
				OFFSET -39.0811 -0.00228153 -0.0401928
				CHANNELS 6 Xposition Yposition Zposition Zrotation Xrotation Yrotation 
				JOINT Foot_R
				{
					OFFSET -40.9854 0.0 0.0
					CHANNELS 6 Xposition Yposition Zposition Zrotation Xrotation Yrotation 
					JOINT Toes_R
					{
						OFFSET -11.7543 0.0 0.0
						CHANNELS 6 Xposition Yposition Zposition Zrotation Xrotation Yrotation 
						End Site
						{
							OFFSET 0.0 0.0 0.0
						}
					}
				}
			}
		}
	}
}
MOTION
Frames:	8
Frame Time:	0.0333333
0.000000 0.000000 0.000000 0.000000 0.000000 -0.000000 -0.735820 92.387900 1.111520 89.220700 -10.114800 1.504820 15.735700 0.000005 -0.000001 74.356200 85.721300 -70.091700 8.984550 -0.406207 -0.000000 0.585496 -2.573580 8.537250 16.377300 -0.000001 -0.000001 6.294780 0.841670 -4.168580 6.456720 -0.000001 -0.000000 2.076300 0.154880 -2.386660 12.994200 -0.242716 4.980390 -82.970700 -14.153800 -63.240100 5.348090 -0.000007 -0.000001 -57.770400 -71.061600 -101.361000 24.328600 0.000019 0.000005 4.030240 5.141440 -38.178500 22.291600 -0.000001 0.000005 15.853000 5.385140 -2.460830 12.994500 -0.242716 -4.980390 87.659800 9.430200 -75.994800 -5.348130 -0.000001 -0.000004 -51.976200 23.839300 -2.854080 -24.328900 0.000322 -0.000009 1.612390 2.927770 -28.876300 -22.291500 -0.000108 -0.000004 18.385600 5.468790 -5.325200 -2.192480 -6.469440 -0.000000 -175.115000 -20.629700 -0.369894 39.081100 -0.000007 -0.000012 -0.097868 0.285621 18.914000 40.985400 -0.000006 -0.000013 -0.329399 7.533230 -66.204800 11.754300 -0.000000 0.000003 -0.000121 -0.001212 -16.623900 -2.192510 6.469440 -0.000001 175.932000 22.549700 178.239000 -39.081100 -0.002282 -0.040193 -0.062932 0.190177 19.207600 -40.985400 0.000008 0.000006 4.619500 23.227100 -66.689500 -11.754300 -0.000006 -0.000006 -0.410498 -0.501129 -16.256500
0.000000 0.000000 0.000000 0.000000 0.000000 -0.000000 -0.869543 92.396600 1.024710 89.271100 -9.628900 1.472140 15.735700 0.000005 -0.000001 74.852200 85.686900 -70.739900 8.984550 -0.406207 -0.000000 0.664650 -2.507760 8.234140 16.377300 -0.000001 -0.000001 6.118390 0.758535 -4.109950 6.456720 -0.000001 -0.000000 1.864790 0.261707 -2.399700 12.994200 -0.242716 4.980390 -83.428600 -13.129300 -63.108100 5.348090 -0.000007 -0.000001 -56.938200 -69.596900 -98.999000 24.328600 0.000019 0.000005 3.452670 3.786290 -42.426400 22.291600 -0.000001 0.000005 17.146800 5.384630 -2.444260 12.994500 -0.242716 -4.980390 87.576000 9.511970 -75.632000 -5.348130 -0.000001 -0.000004 -52.176000 24.121400 -3.027820 -24.328900 0.000322 -0.000009 1.426280 2.534210 -29.402900 -22.291500 -0.000108 -0.000004 18.351400 5.468940 -5.330930 -2.192480 -6.469440 -0.000000 -175.089000 -20.408400 -0.524838 39.081100 -0.000007 -0.000012 -0.096150 0.280882 18.896900 40.985400 -0.000006 -0.000013 -0.376281 7.801090 -66.075400 11.754300 -0.000000 0.000003 -0.000132 -0.001307 -16.627400 -2.192510 6.469440 -0.000001 175.942000 23.083800 178.247000 -39.081100 -0.002282 -0.040193 -0.069311 0.209054 19.159300 -40.985400 0.000008 0.000006 4.481880 23.322500 -66.596800 -11.754300 -0.000006 -0.000006 -0.404602 -0.493756 -16.261000
0.000000 0.000000 0.000000 0.000000 0.000000 -0.000000 -1.028160 92.410400 0.917611 89.356800 -8.949810 1.476770 15.735700 0.000005 -0.000001 75.471800 85.652500 -71.531000 8.984550 -0.406207 -0.000000 0.747367 -2.421430 7.892470 16.377300 -0.000001 -0.000001 5.847770 0.693844 -4.037210 6.456720 -0.000001 -0.000000 1.731580 0.325178 -2.365050 12.994200 -0.242716 4.980390 -83.915300 -12.190600 -63.214700 5.348090 -0.000007 -0.000001 -53.500000 -67.725200 -92.373000 24.328600 0.000019 0.000005 3.057330 2.625960 -49.381100 22.291600 -0.000001 0.000005 18.531600 5.380900 -2.328790 12.994500 -0.242716 -4.980390 87.539100 9.505080 -75.411900 -5.348130 -0.000001 -0.000004 -52.764000 24.239100 -3.068560 -24.328900 0.000322 -0.000009 1.197060 2.129060 -29.377800 -22.291500 -0.000108 -0.000004 18.461700 5.469250 -5.342370 -2.192480 -6.469440 -0.000000 -175.073000 -20.107100 -0.677582 39.081100 -0.000007 -0.000012 -0.097292 0.285092 18.843100 40.985400 -0.000006 -0.000013 -0.416769 8.182140 -65.886000 11.754300 -0.000000 0.000003 -0.000135 -0.001330 -16.628300 -2.192510 6.469440 -0.000001 175.964000 23.533200 178.296000 -39.081100 -0.002282 -0.040193 -0.070853 0.214034 19.114400 -40.985400 0.000008 0.000006 4.379800 23.092500 -66.529300 -11.754300 -0.000006 -0.000006 -0.369277 -0.449687 -16.288500
0.000000 0.000000 0.000000 0.000000 0.000000 -0.000000 -1.187670 92.429700 0.802025 89.461800 -8.160340 1.473250 15.735700 0.000005 -0.000001 76.200700 85.611900 -72.430000 8.984550 -0.406207 -0.000000 0.845259 -2.319930 7.553430 16.377300 -0.000001 -0.000001 5.363650 0.573029 -3.823820 6.456720 -0.000001 -0.000000 1.592730 0.381966 -2.510530 12.994200 -0.242716 4.980390 -84.552100 -11.003000 -63.449300 5.348090 -0.000007 -0.000001 -48.712800 -65.002000 -83.209000 24.328600 0.000019 0.000005 3.018080 1.842170 -58.636000 22.291600 -0.000001 0.000005 19.529100 5.361030 -1.711250 12.994500 -0.242716 -4.980390 87.559400 9.350270 -75.300500 -5.348130 -0.000001 -0.000004 -53.713400 24.224200 -3.094270 -24.328900 0.000322 -0.000009 1.106820 2.014000 -28.823000 -22.291500 -0.000108 -0.000004 18.394900 5.465790 -5.213730 -2.192480 -6.469440 -0.000000 -175.076000 -19.790900 -0.835582 39.081100 -0.000007 -0.000012 -0.095061 0.280285 18.734900 40.985400 -0.000006 -0.000013 -0.445208 8.666590 -65.653500 11.754300 -0.000000 0.000003 -0.000129 -0.001275 -16.626200 -2.192510 6.469440 -0.000001 176.002000 23.958600 178.325000 -39.081100 -0.002282 -0.040193 -0.072431 0.218977 19.082800 -40.985400 0.000008 0.000006 4.421810 22.709000 -66.526500 -11.754300 -0.000006 -0.000006 -0.387832 -0.472811 -16.274100
0.000000 0.000000 0.000000 0.000000 0.000000 -0.000000 -1.377390 92.439900 0.673530 89.510400 -7.289500 1.482260 15.735700 0.000005 -0.000001 77.238500 85.575100 -73.637900 8.984550 -0.406207 -0.000000 0.944387 -2.168160 7.214210 16.377300 -0.000001 -0.000001 4.752060 0.387926 -3.568410 6.456720 -0.000001 -0.000000 1.368080 0.289705 -2.479450 12.994200 -0.242716 4.980390 -85.281800 -9.704830 -63.913400 5.348090 -0.000007 -0.000001 -43.722200 -61.055300 -72.619800 24.328600 0.000019 0.000005 3.479900 1.296570 -69.584200 22.291600 -0.000001 0.000005 19.814800 5.340920 -1.106250 12.994500 -0.242716 -4.980390 87.548200 9.309940 -75.175200 -5.348130 -0.000001 -0.000004 -54.664300 24.401200 -3.037280 -24.328900 0.000322 -0.000009 1.031310 1.934830 -28.090000 -22.291500 -0.000108 -0.000004 18.272900 5.456480 -4.872940 -2.192480 -6.469440 -0.000000 -175.003000 -19.496000 -1.034410 39.081100 -0.000007 -0.000012 -0.091273 0.268894 18.749200 40.985400 -0.000006 -0.000013 -0.461717 9.227500 -65.479700 11.754300 -0.000000 0.000003 -0.000129 -0.001281 -16.626400 -2.192510 6.469440 -0.000001 176.097000 24.482500 178.380000 -39.081100 -0.002282 -0.040193 -0.074414 0.224843 19.072400 -40.985400 0.000008 0.000006 4.510500 22.342200 -66.558700 -11.754300 -0.000006 -0.000006 -0.368716 -0.448990 -16.289000
0.000000 0.000000 0.000000 0.000000 0.000000 -0.000000 -1.559240 92.454600 0.561632 89.570900 -6.365090 1.458570 15.735700 0.000005 -0.000001 79.122500 85.566600 -75.730300 8.984550 -0.406207 -0.000000 1.006610 -1.872410 6.795910 16.377300 -0.000001 -0.000001 4.066410 0.097422 -3.164990 6.456720 -0.000001 -0.000000 1.146130 0.051650 -2.344030 12.994200 -0.242716 4.980390 -86.128300 -8.338480 -64.983700 5.348090 -0.000007 -0.000001 -38.608800 -55.555000 -60.919200 24.328600 0.000019 0.000005 4.442170 0.702978 -81.013800 22.291600 -0.000001 0.000005 19.891100 5.327910 -0.724789 12.994500 -0.242716 -4.980390 87.483000 9.443150 -75.001000 -5.348130 -0.000001 -0.000004 -55.604100 24.768600 -2.828780 -24.328900 0.000322 -0.000009 0.970227 1.883220 -27.289800 -22.291500 -0.000108 -0.000004 18.212100 5.452490 -4.728880 -2.192480 -6.469440 -0.000000 -174.959000 -19.080300 -1.273730 39.081100 -0.000007 -0.000012 -0.091429 0.269838 18.717800 40.985400 -0.000006 -0.000013 -0.497198 9.750770 -65.264600 11.754300 -0.000000 0.000003 -0.000137 -0.001348 -16.628900 -2.192510 6.469440 -0.000001 176.136000 25.233200 178.464000 -39.081100 -0.002282 -0.040193 -0.077414 0.234919 18.967100 -40.985400 0.000008 0.000006 4.402090 22.193700 -66.475300 -11.754300 -0.000006 -0.000006 -0.442798 -0.541617 -16.231000
0.000000 0.000000 0.000000 0.000000 0.000000 -0.000000 -1.739350 92.452100 0.459792 89.580800 -5.538630 1.484950 15.735700 0.000005 -0.000001 80.828600 85.532800 -77.622400 8.984550 -0.406207 -0.000000 1.107720 -1.609510 6.423080 16.377300 -0.000001 -0.000001 3.363340 -0.097375 -2.736800 6.456720 -0.000001 -0.000000 0.936857 -0.190755 -2.200620 12.994200 -0.242716 4.980390 -87.031500 -6.759850 -66.225700 5.348090 -0.000007 -0.000001 -34.083100 -47.553700 -48.902700 24.328600 0.000019 0.000005 5.470910 -0.152990 -91.589900 22.291600 -0.000001 0.000005 20.049700 5.315750 -0.373890 12.994500 -0.242716 -4.980390 87.487000 9.439090 -75.018200 -5.348130 -0.000001 -0.000004 -56.740100 25.346000 -2.698230 -24.328900 0.000322 -0.000009 0.862659 1.752340 -26.242600 -22.291500 -0.000108 -0.000004 18.061500 5.452210 -4.718780 -2.192480 -6.469440 -0.000000 -174.822000 -18.832500 -1.494620 39.081100 -0.000007 -0.000012 -0.092665 0.271570 18.840700 40.985400 -0.000006 -0.000013 -0.506752 10.367400 -65.152000 11.754300 -0.000000 0.000003 -0.000131 -0.001294 -16.626900 -2.192510 6.469440 -0.000001 176.210000 25.901200 178.554000 -39.081100 -0.002282 -0.040193 -0.079475 0.240900 18.968000 -40.985400 0.000008 0.000006 4.380260 22.009600 -66.480700 -11.754300 -0.000006 -0.000006 -0.383608 -0.467743 -16.277200
0.000000 0.000000 0.000000 0.000000 0.000000 -0.000000 -1.894250 92.463200 0.364424 89.589700 -4.811850 1.495380 15.735700 0.000005 -0.000001 82.600900 85.486600 -79.619400 8.984550 -0.406207 -0.000000 1.227660 -1.331890 5.972520 16.377300 -0.000001 -0.000001 2.605010 -0.313455 -2.183780 6.456720 -0.000001 -0.000000 0.657875 -0.380990 -1.998710 12.994200 -0.242716 4.980390 -87.991300 -4.853310 -67.485600 5.348090 -0.000007 -0.000001 -32.395500 -36.737400 -38.981800 24.328600 0.000019 0.000005 6.254410 -0.996349 -99.015300 22.291600 -0.000001 0.000005 18.737800 5.341240 -1.124390 12.994500 -0.242716 -4.980390 87.498800 9.482080 -75.149100 -5.348130 -0.000001 -0.000004 -57.987200 26.138400 -2.527120 -24.328900 0.000322 -0.000009 0.807401 1.701610 -25.418600 -22.291500 -0.000108 -0.000004 17.890300 5.447130 -4.536960 -2.192480 -6.469440 -0.000000 -174.769000 -18.374900 -1.682560 39.081100 -0.000007 -0.000012 -0.092827 0.271867 18.852200 40.985400 -0.000006 -0.000013 -0.566371 10.576400 -64.993100 11.754300 -0.000000 0.000003 -0.000165 -0.001578 -16.637400 -2.192510 6.469440 -0.000001 176.304000 26.437600 178.638000 -39.081100 -0.002282 -0.040193 -0.078638 0.239422 18.897700 -40.985400 0.000008 0.000006 4.468540 21.813300 -66.486400 -11.754300 -0.000006 -0.000006 -0.389140 -0.475102 -16.272900
